<svg xmlns="http://www.w3.org/2000/svg" viewBox="0 0 1713.64 511.35"><defs><style>.cls-1{fill:#fdfdfd;}</style></defs><g id="Layer_2" data-name="Layer 2"><g id="Layer_1-2" data-name="Layer 1"><path class="cls-1" d="M1609,3.06c-.89-.06-1.78,0-2.67,0h-66.62c-.78,0-1.56,0-2.34,0-2.74-.07-4.17,1.16-4.13,4,0,1.23,0,2.45,0,3.68q0,37.39,0,74.78c0,5.6-.08,5.68-5.51,5.68h-72c-1,0-2,0-3-.07a2.38,2.38,0,0,1-2.48-2.55c-.07-1.22-.06-2.45-.07-3.67q0-38.07,0-76.12c0-5.2-.53-5.72-5.78-5.72q-34.14,0-68.28,0c-5,0-5.54.59-5.56,5.62,0,10.68,0,21.36,0,32.05,0,.89.33,1.87-.31,2.78a13.87,13.87,0,0,1-1.72-2.22,92.22,92.22,0,0,0-53-36.82A115.8,115.8,0,0,0,1290.18.35l-.33,0c0,.13,0,.26,0,.39-1.59,0-3.27.55-4.67-.72h-5.36a5.06,5.06,0,0,1-5.36,0h-8a5.06,5.06,0,0,1-5.36,0h-5.35c-1.15,1.35-2.65.62-4,.69-11.4,1.45-22.73,3.22-33.61,7.05C1177.81,21.94,1155,50.93,1146.65,92a188.32,188.32,0,0,0-3.42,35.13c0,.85,0,1.69,0,3.19-18.85-22.17-44.59-29.85-70.63-36.78-13.76-3.66-27.7-6.69-41.54-10.08a50.92,50.92,0,0,1-11.59-4.22c-10.36-5.44-12-17.47-3.51-25.59a22,22,0,0,1,10.42-5.7c9.34-2.13,18.63-2,27.67,1.28,12.41,4.48,18.33,14.24,20.83,26.49.5,2.48,1.36,3.17,3.89,3q33.87-2.1,67.77-3.91c2.07-.11,2.52-.52,2.19-2.66-2.69-17.36-8.23-33.44-20.58-46.53-10.71-11.36-24.42-17.2-39.22-20.95a146.5,146.5,0,0,0-20.4-3.54c-1-.11-2.52.56-3-1.17h-1.33c-1.79,1.4-3.57.88-5.36,0h-3.35a6,6,0,0,1-6,0h-8.71c-1.91,1.29-4,.45-6.07.61h0c-1.32-.23-2.83.77-4-.61h-1.34c-1.88,1.23-4,.69-6,.7,0-.08,0-.16,0-.23a3.56,3.56,0,0,0-.47.1l-.72.05,1.23.1a14.57,14.57,0,0,1-6.08.6,5.33,5.33,0,0,1,1.78-.65c-.6,0-1.2,0-1.8,0A110.87,110.87,0,0,0,978.78,11c-8.4,4.06-16.25,9-22.55,15.92a69.93,69.93,0,0,0-17.6,34.52,101.66,101.66,0,0,0-21.09-29.07c-13.39-13.12-29.34-21.56-47.17-26.8A124.63,124.63,0,0,0,840.62.35V.71c-1.59,0-3.28.56-4.68-.71h-2c-1.14,1.37-2.61.43-3.93.56-1.6-.06-3.31.7-4.77-.56h-8.7c-1.23,1.23-2.73.5-4.11.55h0c-1.32-.13-2.79.85-3.93-.55h-.67c-1.64,1.31-3.55.6-5.35.69V.33l-.42,0a116.36,116.36,0,0,0-28.39,4.79c-25.42,7.44-46,21.62-61.38,43.26-2.37,3.34-4.21,7-6.46,10.43-.18-.11-.33-.14-.36-.23a10.76,10.76,0,0,1-.47-1.94c-5.77-25.94-21.4-42.36-47.35-48.93C642.7,4,627.38,3.18,612.16,3.15q-159-.37-318-.11c-1.74,0-4-.62-5,1.06-1.1,1.93.94,3.44,2,4.92C309.41,35.52,318.79,65,320,97A154.24,154.24,0,0,1,316,137a160.21,160.21,0,0,1-38.4,73.47,161.32,161.32,0,0,1-57.36,40.72,13.86,13.86,0,0,0-3.29,1.64c-1.33,1-1,1.81.48,2.24a16.56,16.56,0,0,0,4.66.3H360.64c1.23,0,2.45,0,3.68-.08a3.05,3.05,0,0,0,3.21-3.13c.11-1.44.09-2.89.09-4.34V159.71c0-1.11,0-2.22,0-3.34,0-2,.9-3.11,3-3.11,1.12,0,2.23,0,3.35,0q40.67,0,81.34,0c5.5,0,6-.47,6-5.84q0-20.35,0-40.73c0-5.66-.47-6.14-6-6.14q-23.78,0-47.54,0-17.73,0-35.48,0c-4.49,0-4.64-.16-4.64-4.74q0-15.86,0-31.72c0-4.82.11-4.92,4.79-5H471.5c6.61,0,6.61,0,6.61,6.6q0,91.82,0,183.63c0,5.64.44,6.08,6.09,6.09h67.28c.89,0,1.78,0,2.68-.05,2.31-.07,3.45-1.25,3.53-3.54,0-1.34,0-2.67,0-4q0-43.89,0-87.8c0-1.12,0-2.23,0-3.34,0-1.75.82-2.68,2.63-2.71,9-.15,17.28,1.46,24,8.16A58.86,58.86,0,0,1,594,175.32C607.7,200,621,225,634.31,249.94c2.13,4,4.57,5.58,9.1,5.55,25.55-.18,51.1-.08,76.65-.09,7.22,0,7.57-.47,4.14-7-9.94-18.92-19.92-37.83-29.4-57A152.53,152.53,0,0,0,674.35,161a50.33,50.33,0,0,0-26.2-16.54c16.54-3.69,30.59-11,42.07-23.6.44,8.91-.11,17.23.68,25.56,1.57,16.54,4.94,32.55,12.21,47.59,15.84,32.77,41.31,53.52,77.08,61.44A167.09,167.09,0,0,0,814,259.2c16.18.25,32.31.45,48.22-3.2,21.11-4.85,39.9-14,55.46-29.28a111.09,111.09,0,0,0,15.79-19.81c.47-.73.77-1.84,1.78-1.81s1.19,1.2,1.55,2a83.92,83.92,0,0,0,4.19,8c7.11,12.08,16,22.65,28.25,29.7,15.71,9,33.07,12.64,50.91,13.89,12.32.87,24.7.82,37.08.55,17.86-.4,35-3.63,51.34-10.89a81.35,81.35,0,0,0,26.28-18.11,85.48,85.48,0,0,0,19.81-33.32c.13-.4.17-.89.77-1.09a11.33,11.33,0,0,1,1.27,2.26,128.18,128.18,0,0,0,28.29,36.1c14.35,12.62,31.5,19.07,50,22.53,9.57,1.79,19.23,2.25,29,2.54,11.49.35,23,.45,34.38-.76,25.2-2.68,47-12.54,64-31.85,2.74-3.11,5.19-6.45,8.15-10.27,0,11.49,0,22.27,0,33,0,5.58.46,6,6.15,6h62.93c1.79,0,3.57,0,5.36,0,4.51-.09,5.11-.7,5.19-5.32,0-1.12,0-2.23,0-3.34q0-43.74,0-87.48c0-4.54.13-4.67,4.69-4.67q36.66,0,73.31,0c5,0,5,.07,5,5q0,44.24,0,88.47c0,1.34,0,2.67.07,4a3.07,3.07,0,0,0,3.14,3.21c1.34.1,2.67.09,4,.09h65.27c7.81,0,7.82,0,7.82-7.73V11.29c0-1.22,0-2.45,0-3.67C1613.28,4.25,1612.34,3.3,1609,3.06ZM627.36,82.14c-1.19,10.81-7.13,17.5-17.82,20.16a95.94,95.94,0,0,1-26.41,3.3c-7.68-.25-15.38-.21-23.06,0-2.91.09-3.45-.86-3.38-3.53.19-7.33.06-14.67.06-22,0-7.66,0-15.33,0-23,0-1.57.19-2.44,2.12-2.39,14.25.33,28.53-.65,42.75.73a54.63,54.63,0,0,1,8.53,1.52C622.41,60.14,628.76,69.51,627.36,82.14Zm241.4,85.6c-5.81,18.85-18.69,29.51-38,32.42-11.23,1.7-22.27.69-32.63-4.35-12.68-6.17-20.81-16.36-24.37-29.79-6.52-24.56-6.58-49.28.54-73.74,6.93-23.82,28.6-36.44,54.14-33.13,23.47,3.05,37.86,17.28,43,41.22a134.15,134.15,0,0,1,2.49,27.84C873.64,141.58,872.74,154.85,868.76,167.74Zm197.57,38A43.32,43.32,0,0,1,1005.42,179a52.35,52.35,0,0,1-2-8.77c-.28-2.41-1-3.06-3.51-2.88-16.67,1.19-33.35,2.18-50,3.22-1.31.08-2.93.89-2.34-1.92,3.8-17.95,4.48-36.13,3.5-54.4,0-.4,0-.81,0-2.15,15,18,34.84,26,55.38,32.86,14.07,4.69,28.67,7.33,42.94,11.26a86,86,0,0,1,18.09,6.79c6.77,3.63,11.75,8.89,13.45,16.54C1083.26,190,1077.32,200.39,1066.33,205.73Zm301.61-38.81c-15-4.68-30.06-9.09-45.06-13.73-2.47-.77-3.33-.43-3.94,2.26-2.23,9.93-5.71,19.4-11.69,27.8a39.19,39.19,0,0,1-26.07,16.52c-9,1.59-18,1.59-26.82-1-15.54-4.54-24.72-15.22-28.78-30.54-4.82-18.2-5-36.74-3.62-55.33.75-10.26,2.78-20.26,7.51-29.54,15.29-30,56.74-34.69,78.39-8.89,3.93,4.7,6.14,10.3,8.06,16,.72,2.15,1.63,2.61,3.84,2.1,16.29-3.7,32.62-7.23,48.92-10.92,2.32-.53,2.81.09,2.8,2.34-.09,13.57,0,27.15,0,40.72,0,13.13-.08,26.26.07,39.39C1371.53,167.11,1371.08,167.9,1367.94,166.92Z"/><path class="cls-1" d="M1712.27,34.06C1707,13.55,1685.7.74,1665.19,5.73c-18.86,4.59-31.73,21.84-30.3,40.62,1.47,19.38,16.27,34.83,35,36.57,20,1.86,37.31-10.2,42.43-29.57.2-.74-.16-2,1.27-1.93V46.08a3.83,3.83,0,0,1,0-4.68V36.73C1712.05,36.43,1712.52,35,1712.27,34.06Zm-38.38,44.08c-18.77,0-33.48-15.12-33.46-34.29s15.11-34.45,33.88-34.37,33.84,15.59,33.78,34.61A33.94,33.94,0,0,1,1673.89,78.14Z"/><path class="cls-1" d="M1055.53,0h-6A11.39,11.39,0,0,0,1055.53,0Z"/><path class="cls-1" d="M1029.42,0h-6c0,.16,0,.31,0,.47a4.37,4.37,0,0,1,.52-.12C1025.76.15,1027.63.74,1029.42,0Z"/><path class="cls-1" d="M1034.94.34c2-.16,3.94.37,5.86-.34h-6a1.82,1.82,0,0,1,0,.33Z"/><path class="cls-1" d="M807.82,0h-5.35V.33C804.25.25,806.07.66,807.82,0Z"/><path class="cls-1" d="M1279.81,0h-5.36A8.76,8.76,0,0,0,1279.81,0Z"/><path class="cls-1" d="M1266.42,0h-5.36A8.76,8.76,0,0,0,1266.42,0Z"/><path class="cls-1" d="M1064.24,0h-5.36A8.76,8.76,0,0,0,1064.24,0Z"/><path class="cls-1" d="M1289.85.33V0h-4.68C1286.69.7,1288.29.22,1289.85.33Z"/><path class="cls-1" d="M1713.64,46.08V41.4A6.84,6.84,0,0,0,1713.64,46.08Z"/><path class="cls-1" d="M840.48.34h.14c0-.11,0-.23,0-.35h-4.69C837.41.7,839,.18,840.48.34Z"/><path class="cls-1" d="M829.85.34H830c0-.12,0-.23-.05-.34h-4.69C826.72.73,828.31.17,829.85.34Z"/><path class="cls-1" d="M1255.71,0h-4a.42.42,0,0,1,.22.32C1253.18.25,1254.49.67,1255.71,0Z"/><path class="cls-1" d="M1251.91.46a.22.22,0,0,0,0-.14l-.22,0V.69C1251.77.69,1251.84.61,1251.91.46Z"/><path class="cls-1" d="M830.14.32c1.27-.07,2.57.35,3.79-.32h-4C830.09.09,830.16.2,830.14.32Z"/><path class="cls-1" d="M830.14.35v0l-.17,0,0,.22C830.06.56,830.1.49,830.14.35Z"/><path class="cls-1" d="M1034.55.32a.28.28,0,0,1,0-.13c.08-.13.15-.19.22-.19h-4C1032,.66,1033.29.26,1034.55.32Z"/><path class="cls-1" d="M1034.55.32a.41.41,0,0,0,.18.29h0a2.33,2.33,0,0,0,0-.28Z"/><path class="cls-1" d="M812.5.34c1.34-.17,2.74.38,4-.34h-4l-.06.34Z"/><path class="cls-1" d="M812.29.33a.2.2,0,0,1,0-.18c.06-.1.13-.15.19-.15h-4C809.71.68,811,.23,812.29.33Z"/><path class="cls-1" d="M812.29.33a.4.4,0,0,0,.13.22h0l0-.21Z"/><path class="cls-1" d="M1022.22.62a11.26,11.26,0,0,0-3.07.05C1020.17.68,1021.2.69,1022.22.62Z"/><path class="cls-1" d="M80.59,124.9a349.15,349.15,0,0,0,121.69,22.56c9.4.34,20.15-.84,30.91-1.89a2.82,2.82,0,0,0,2.8-2.29,202.17,202.17,0,0,0,8.93-51.1c.08-2.17-.43-2.86-2.73-2.6a274.63,274.63,0,0,1-58.39,0A301,301,0,0,1,92.19,65.12c-2.77-1.22-3.44-.56-4.29,2A211.17,211.17,0,0,0,77,119.18C76.81,122.45,77.61,123.77,80.59,124.9Z"/><path class="cls-1" d="M76.6,141.1a166.46,166.46,0,0,0,10.27,54.47,4.78,4.78,0,0,0,3.25,3.37c33.82,11.07,68.45,17.19,104.09,17.33a5,5,0,0,0,4.47-2.18,231.44,231.44,0,0,0,16-23.4,195,195,0,0,0,15.22-30.86c-6.25.35-12,.81-17.8,1-45.09,1.31-88.42-7.38-130.52-23C76.52,135.92,76.51,135.88,76.6,141.1Z"/><path class="cls-1" d="M95.29,54.82A307.28,307.28,0,0,0,209,77.81c11.14-.28,22-.55,32.87-2.27,2.39-.38,3.18-1.08,3-3.55a219.86,219.86,0,0,0-5.34-34.88c-.67-2.75-1.78-3.46-4.54-3.19-20.94,2.06-41.61,0-62.11-4.36a210,210,0,0,1-52.84-18.38c-1.47-.76-2.37-1-3.51.65A233.62,233.62,0,0,0,94,51.91C93.33,53.53,93.67,54.16,95.29,54.82Z"/><path class="cls-1" d="M57.24,114.82c1.89,1,2.57.87,2.79-1.55a196.35,196.35,0,0,1,12.76-54c1-2.57.45-3.54-1.81-4.82C55.25,45.6,40.86,35,29.23,21c-1.19-1.43-2-3.18-3.81-4.32a154.08,154.08,0,0,0-23,56.83c-.46,2.44.29,3.88,2,5.47C19.91,94,38,105.23,57.24,114.82Z"/><path class="cls-1" d="M67.84,190a8.29,8.29,0,0,0-.2-1.07,169,169,0,0,1-8.41-58.74c.06-2.11-1.07-2.62-2.52-3.31a209.47,209.47,0,0,1-41.94-26.54C10,96.42,5.5,92.12.59,87.33a154.35,154.35,0,0,0,8.44,66,11.06,11.06,0,0,0,3.53,5.06c16.42,13.48,35,23.21,54.35,31.67C67.14,190.17,67.48,190,67.84,190Z"/><path class="cls-1" d="M268.05,202.77a152.7,152.7,0,0,0,32.14-57.15c.75-2.44,1.72-4.86,1.86-7.71C284,149.14,264.31,155,243.73,158c-2,.3-2.77,1.26-3.43,3a193.59,193.59,0,0,1-20.3,39c-3.47,5.15-7,10.23-10.85,15.8,19.43-.87,37.9-4.08,55.76-10.54A7.71,7.71,0,0,0,268.05,202.77Z"/><path class="cls-1" d="M303.91,71.46c-.32-1.54-.45-2.58-2.4-1.27C288.37,79,273.67,84,258.25,87c-2.05.4-2.81,1.14-2.89,3.37a196.67,196.67,0,0,1-4.61,37c-1.2,5.26-2.62,10.47-4,16.11,18.37-3.71,35.65-9,51.16-19.25,5.95-3.95,9.82-8.45,8.71-16a11.15,11.15,0,0,1,.13-2A151,151,0,0,0,303.91,71.46Z"/><path class="cls-1" d="M185.7,228a341.75,341.75,0,0,1-91.29-16.52c0,.64-.07.88,0,1a141.6,141.6,0,0,0,27.06,37,7.85,7.85,0,0,0,4.4,2.1,163.55,163.55,0,0,0,28,2.41,7.58,7.58,0,0,0,4.64-1.46,205.38,205.38,0,0,0,26.08-22.39A2.47,2.47,0,0,0,185.7,228Z"/><path class="cls-1" d="M76.1,45.94c1.5.79,2,.4,2.71-1,2.43-5,4.88-10,7.52-14.87,4.64-8.6,10.4-16.52,16.26-25.25H98.65C78.81,4.83,59,5,39.15,4.72c-4,0-6.38,1.28-8.46,4.38-1.09,1.63-1,2.52.33,3.91C44,26.78,59.48,37.13,76.1,45.94Z"/><path class="cls-1" d="M250.2,38.1a195.87,195.87,0,0,1,5.14,32.55c.07.89-.54,2.52,1.68,2.12l1.13-.24a123.47,123.47,0,0,0,22.15-7.35,83.87,83.87,0,0,0,17-9.81c1.09-.83,2.05-1.51,1.46-3.25A157.13,157.13,0,0,0,284.35,21.4c-.71-1.18-1.31-1.47-2.6-.67C273.32,26,264,28.89,254.41,31.13,248.79,32.44,248.75,32.47,250.2,38.1Z"/><path class="cls-1" d="M73.88,205.32a5.27,5.27,0,0,0-3.19-2.69,267.52,267.52,0,0,1-47.31-25.4c-1.12-.77-2.22-2.19-4-1.48C41.12,214.31,75.66,236,98.13,243.51a4.81,4.81,0,0,0-.44-.93A149.69,149.69,0,0,1,73.88,205.32Z"/><path class="cls-1" d="M138,6.65a234.54,234.54,0,0,0,60.72,13.88,178.79,178.79,0,0,0,32.06.13c2.67-.22,3.28-1,2.09-3.47-1.61-3.29-3.07-6.66-4.46-10-.75-1.81-1.89-2.36-3.84-2.35-29.77.06-59.54,0-89.68,0C135.8,6.14,137,6.27,138,6.65Z"/><path class="cls-1" d="M242.46,224.3a274.41,274.41,0,0,1-42.24,3.91,5.15,5.15,0,0,0-3.92,2.07,204.3,204.3,0,0,1-23.73,21.53c.88,1.28,2.24.1,3.27.62a153.1,153.1,0,0,0,68.3-28A10.57,10.57,0,0,0,242.46,224.3Z"/><path class="cls-1" d="M243.58,17.32c.47,1.1,1.14,1.58,1.82,1.45.93-.12,1.38-.13,1.82-.23,8.58-2,17-4.41,25-8.31,1.05-.51,3.17-.62,2.6-2.32-.52-1.51-1.56-3.13-3.85-3.11-10.14.07-20.28,0-30.41,0-1.72,0-2.24.47-1.48,2.14Q241.39,12.1,243.58,17.32Z"/><path class="cls-1" d="M172.57,251.81c-.84.33-1.57.92-.19,1.25a3.65,3.65,0,0,0,3.46-.63C174.67,252.65,173.38,253.47,172.57,251.81Z"/><path class="cls-1" d="M1682.64,46.05c6.69-2.7,9.64-7.52,9-14.65-.56-5.91-4.19-9.46-11.29-10.83-6.51-1.26-13.12-.39-19.68-.73-2.31-.12-2.72.78-2.71,2.86.08,13.23,0,26.47,0,39.71,0,5.56,0,5.44,5.74,5.51,2.26,0,2.85-.68,2.79-2.84-.15-4.66-.06-9.34,0-14,0-.92-.36-2.14,1.23-2.23,2.71-.13,5.24-.21,7,2.64,2.92,4.73,6.16,9.26,9.21,13.91.9,1.37,1.84,2.49,3.66,2.47,2.41,0,4.81,0,7.88,0-5-7.31-9.61-14.07-14.42-21.12C1681.65,46.47,1682.14,46.25,1682.64,46.05Zm-3.71-4.48a16.25,16.25,0,0,1-2.56.73c-9.3,1.78-9.92,1.27-9.92-7.92,0-8.36,0-8.36,9-7.78,6.39.42,9.18,4.31,7.53,10.43A6.3,6.3,0,0,1,1678.93,41.57Z"/><path class="cls-1" d="M118.4,367.87h24.69L194.2,511.35H169.32l-12.43-38h-53l-12.43,38h-24Zm-8.17,86.47h40.48l-19.88-61.75h-.54Z"/><path class="cls-1" d="M270.51,367.87h91.65v21.58H293.74v37.8H353.8v20.4H293.74v63.7H270.51Z"/><path class="cls-1" d="M443.83,367.87h23.23V511.35H443.83Z"/><path class="cls-1" d="M556.68,367.87h23.23V489.76h67.51v21.59H556.68Z"/><path class="cls-1" d="M726.34,367.87h23.23V489.76h67.52v21.59H726.34Z"/><path class="cls-1" d="M896,367.87h23.23V511.35H896Z"/><path class="cls-1" d="M1044.32,367.87H1069l51.11,143.48h-24.88l-12.43-38h-53l-12.43,38h-24Zm-8.17,86.47h40.48l-19.88-61.75h-.54Z"/><path class="cls-1" d="M1166.1,367.87h107.54v21.58h-42.26v121.9h-23.23V389.45H1166.1Z"/><path class="cls-1" d="M1352.12,367.87h95.56v21.58h-72.33v37.8h67v20.4h-67v42.11H1449v21.59h-96.92Z"/><path class="cls-1" d="M1532.57,367.87h55q30.5.39,44.76,20.9,13.8,20.33,13.81,50.84,0,30.31-13.81,50.64-14.25,20.7-44.76,21.1h-55Zm23.23,123.07h22.89q26.71-.19,35.89-14.85a43.63,43.63,0,0,0,6.63-16.52,54.48,54.48,0,0,0,1.54-9.73q.18-5.22.18-10.23.38-22.32-8.35-36.68a29.94,29.94,0,0,0-13.45-10.82q-8.89-3.84-22.44-3.84H1555.8Z"/></g></g></svg>